<svg width="32" height="32" viewBox="0 0 32 32" fill="none" xmlns="http://www.w3.org/2000/svg">
<path fill-rule="evenodd" clip-rule="evenodd" d="M28.7999 16C28.7999 23.0693 23.0692 28.8 16 28.8C8.93071 28.8 3.19995 23.0693 3.19995 16C3.19995 8.93077 8.93071 3.20001 16 3.20001C23.0692 3.20001 28.7999 8.93077 28.7999 16ZM16 11.2C15.4098 11.2 14.8921 11.5188 14.613 12.0012C14.1706 12.7661 13.1918 13.0274 12.4269 12.585C11.662 12.1425 11.4006 11.1637 11.8431 10.3989C12.6706 8.9683 14.2213 8.00001 16 8.00001C18.6509 8.00001 20.8 10.149 20.8 12.8C20.8 14.89 19.4643 16.6679 17.6 17.3269V17.6C17.6 18.4837 16.8836 19.2 16 19.2C15.1163 19.2 14.4 18.4837 14.4 17.6V16C14.4 15.1164 15.1163 14.4 16 14.4C16.8836 14.4 17.6 13.6837 17.6 12.8C17.6 11.9164 16.8836 11.2 16 11.2ZM16 24C16.8836 24 17.6 23.2837 17.6 22.4C17.6 21.5164 16.8836 20.8 16 20.8C15.1163 20.8 14.4 21.5164 14.4 22.4C14.4 23.2837 15.1163 24 16 24Z" fill="#64748B"/>
</svg>
